<?xml version="1.0" encoding="UTF-8" standalone="no"?>
<!-- Created with Inkscape (http://www.inkscape.org/) -->

<svg
   xmlns:dc="http://purl.org/dc/elements/1.1/"
   xmlns:cc="http://creativecommons.org/ns#"
   xmlns:rdf="http://www.w3.org/1999/02/22-rdf-syntax-ns#"
   xmlns:svg="http://www.w3.org/2000/svg"
   xmlns="http://www.w3.org/2000/svg"
   xmlns:sodipodi="http://sodipodi.sourceforge.net/DTD/sodipodi-0.dtd"
   xmlns:inkscape="http://www.inkscape.org/namespaces/inkscape"
   id="svg7384"
   height="16"
   width="16"
   version="1.1"
   inkscape:version="0.91 r13725"
   sodipodi:docname="addSound.svg">
  <defs
     id="defs10" />
  <sodipodi:namedview
     pagecolor="#ffffff"
     bordercolor="#666666"
     borderopacity="1"
     objecttolerance="10"
     gridtolerance="10"
     guidetolerance="10"
     inkscape:pageopacity="0"
     inkscape:pageshadow="2"
     inkscape:window-width="1301"
     inkscape:window-height="744"
     id="namedview8"
     showgrid="false"
     inkscape:zoom="14.75"
     inkscape:cx="8.4067797"
     inkscape:cy="5.3559322"
     inkscape:window-x="65"
     inkscape:window-y="24"
     inkscape:window-maximized="1"
     inkscape:current-layer="g4953" />
  <metadata
     id="metadata90">
    <rdf:RDF>
      <cc:Work
         rdf:about="">
        <dc:format>image/svg+xml</dc:format>
        <dc:type
           rdf:resource="http://purl.org/dc/dcmitype/StillImage" />
        <dc:title>Gnome Symbolic Icon Theme</dc:title>
      </cc:Work>
    </rdf:RDF>
  </metadata>
  <title
     id="title9167">Gnome Symbolic Icon Theme</title>
  <g
     id="g4953"
     transform="translate(-601 -461)">
    <path
       id="rect6190-8-8-4"
       style="color:#000000;fill:#000000;enable-background:new"
       d="m 606.47458,462.76277 v 1.59321 5.22767 c -0.40104,-0.27206 -0.86465,-0.4481 -1.36158,-0.4481 -1.50401,0 -2.72317,1.42662 -2.72317,3.18644 0,1.75982 1.2192,3.18643 2.72317,3.18643 1.50396,0 2.72316,-1.42661 2.72316,-3.18643 v -7.96609 h 5.44633 v 5.22767 c -0.40104,-0.27206 -0.86465,-0.4481 -1.36158,-0.4481 -1.50401,0 -2.72317,1.42662 -2.72317,3.18644 0,1.75982 1.2192,3.18643 2.72317,3.18643 1.50396,0 2.72316,-1.42661 2.72316,-3.18643 v -7.96609 -1.59321 h -1.36158 -5.44633 -1.36158 z"
       inkscape:connector-curvature="0" />
  </g>
</svg>
