<?xml version="1.0" encoding="UTF-8" standalone="no"?>
<!-- Created with Inkscape (http://www.inkscape.org/) -->

<svg
   xmlns:dc="http://purl.org/dc/elements/1.1/"
   xmlns:cc="http://creativecommons.org/ns#"
   xmlns:rdf="http://www.w3.org/1999/02/22-rdf-syntax-ns#"
   xmlns:svg="http://www.w3.org/2000/svg"
   xmlns="http://www.w3.org/2000/svg"
   xmlns:sodipodi="http://sodipodi.sourceforge.net/DTD/sodipodi-0.dtd"
   xmlns:inkscape="http://www.inkscape.org/namespaces/inkscape"
   id="svg7384"
   height="16"
   width="16"
   version="1.1"
   inkscape:version="0.91 r13725"
   sodipodi:docname="coloringSelected.svg">
  <defs
     id="defs12" />
  <sodipodi:namedview
     pagecolor="#ffffff"
     bordercolor="#666666"
     borderopacity="1"
     objecttolerance="10"
     gridtolerance="10"
     guidetolerance="10"
     inkscape:pageopacity="0"
     inkscape:pageshadow="2"
     inkscape:window-width="738"
     inkscape:window-height="480"
     id="namedview10"
     showgrid="false"
     inkscape:zoom="14.75"
     inkscape:cx="8"
     inkscape:cy="8"
     inkscape:window-x="192"
     inkscape:window-y="93"
     inkscape:window-maximized="0"
     inkscape:current-layer="svg7384" />
  <metadata
     id="metadata90">
    <rdf:RDF>
      <cc:Work
         rdf:about="">
        <dc:format>image/svg+xml</dc:format>
        <dc:type
           rdf:resource="http://purl.org/dc/dcmitype/StillImage" />
        <dc:title>Gnome Symbolic Icon Theme</dc:title>
      </cc:Work>
    </rdf:RDF>
  </metadata>
  <title
     id="title9167">Gnome Symbolic Icon Theme</title>
  <g
     id="layer11"
     transform="translate(-283,-649)"
     style="fill:#ff6600">
    <path
       id="path8587"
       style="block-progression:tb;text-indent:0;color:#000000;enable-background:new;text-transform:none;fill:#ff6600"
       d="m291 650.01c-2.2028 0-3.9929 1.79-3.9929 3.9929 0 2.2028 1.79 3.9929 3.9929 3.9929 2.2028 0 3.9928-1.79 3.9928-3.9929 0-2.2028-1.79-3.9929-3.9928-3.9929zm0 1.0524c1.6264 0 2.9405 1.3141 2.9405 2.9405s-1.3141 2.9405-2.9405 2.9405-2.9405-1.3141-2.9405-2.9405 1.3141-2.9405 2.9405-2.9405z" />
    <path
       id="path8591"
       style="block-progression:tb;text-indent:0;color:#000000;enable-background:new;text-transform:none;fill:#ff6600"
       d="m287 657.01c-2.2028 0-3.9929 1.79-3.9929 3.9929 0 2.2028 1.79 3.9929 3.9929 3.9929 2.2028 0 3.9928-1.79 3.9928-3.9929 0-2.2028-1.79-3.9929-3.9928-3.9929zm0 1.0524c1.6264 0 2.9405 1.3141 2.9405 2.9405s-1.3141 2.9405-2.9405 2.9405-2.9405-1.3141-2.9405-2.9405 1.3141-2.9405 2.9405-2.9405z" />
    <path
       id="path8593"
       style="color:#000000;enable-background:new;fill:#ff6600"
       d="m-2 321a7 7 0 1 1 -14 0 7 7 0 1 1 14 0z"
       transform="matrix(.57131 0 0 .57131 300.14 477.61)" />
    <path
       id="path8595"
       style="fill-opacity:0.36404;color:#000000;enable-background:new;fill:#ff6600"
       d="m-2 321a7 7 0 1 1 -14 0 7 7 0 1 1 14 0z"
       transform="matrix(.49524 0 0 .49524 291.46 502.03)" />
  </g>
</svg>
