<?xml version="1.0" encoding="UTF-8" standalone="no"?>
<!-- Created with Inkscape (http://www.inkscape.org/) -->

<svg
   xmlns:dc="http://purl.org/dc/elements/1.1/"
   xmlns:cc="http://creativecommons.org/ns#"
   xmlns:rdf="http://www.w3.org/1999/02/22-rdf-syntax-ns#"
   xmlns:svg="http://www.w3.org/2000/svg"
   xmlns="http://www.w3.org/2000/svg"
   xmlns:sodipodi="http://sodipodi.sourceforge.net/DTD/sodipodi-0.dtd"
   xmlns:inkscape="http://www.inkscape.org/namespaces/inkscape"
   id="svg7384"
   height="16"
   width="16"
   version="1.1"
   inkscape:version="0.91 r13725"
   sodipodi:docname="help.svg">
  <defs
     id="defs13" />
  <sodipodi:namedview
     pagecolor="#ffffff"
     bordercolor="#666666"
     borderopacity="1"
     objecttolerance="10"
     gridtolerance="10"
     guidetolerance="10"
     inkscape:pageopacity="0"
     inkscape:pageshadow="2"
     inkscape:window-width="738"
     inkscape:window-height="480"
     id="namedview11"
     showgrid="false"
     inkscape:zoom="14.75"
     inkscape:cx="8"
     inkscape:cy="8"
     inkscape:window-x="75"
     inkscape:window-y="34"
     inkscape:window-maximized="0"
     inkscape:current-layer="svg7384" />
  <metadata
     id="metadata90">
    <rdf:RDF>
      <cc:Work
         rdf:about="">
        <dc:format>image/svg+xml</dc:format>
        <dc:type
           rdf:resource="http://purl.org/dc/dcmitype/StillImage" />
        <dc:title>Gnome Symbolic Icon Theme</dc:title>
      </cc:Work>
    </rdf:RDF>
  </metadata>
  <title
     id="title9167">Gnome Symbolic Icon Theme</title>
  <g
     id="layer9"
     transform="translate(-201 -177)"
     style="fill:#000000">
    <path
       id="path19592-2"
       style="color:#bebebe;fill:#000000"
       d="m208.85 181.97c1.6424-0.092 3.0955 1.1701 3.1875 2.8125-0.0001 1.4014-0.37771 1.9218-1.5938 2.8438-0.19093 0.14364-0.3256 0.2506-0.375 0.3125-0.0494 0.0621-0.0312 0.0332-0.0312 0.0312 0.007 0.52831-0.47163 1-1 1s-1.007-0.47169-1-1c0-0.50239 0.22424-0.94342 0.46875-1.25 0.24451-0.30663 0.4913-0.51638 0.71875-0.6875 0.20405-0.16056 0.46083-0.38454 0.6875-0.65625 0.0935-0.1121 0.129-0.30766 0.125-0.4375v-0.0312c-0.0316-0.56324-0.49926-0.9691-1.0625-0.9375s-0.9691 0.43676-0.9375 1h-2c-0.092-1.6424 1.1701-2.9079 2.8125-3zm0.1875 8c0.55228 0 1 0.44772 1 1s-0.44772 1-1 1-1-0.44772-1-1 0.44772-1 1-1z" />
    <path
       id="rect11714-6-6"
       style="opacity:0.32;fill-opacity:0;block-progression:tb;text-indent:0;color:#000000;text-transform:none;fill:#000000"
       d="m209 178.5c-2.9327 0-5.4021 1.062-7.3125 2.7188a0.50005 0.50005 0 0 0 -0.1875 0.375v1.4062a0.50005 0.50005 0 0 0 0.5 0.5h1.4688a0.50005 0.50005 0 0 0 0.34375 -0.125c1.4516-1.2083 2.9942-1.875 5.1875-1.875 2.1869 0 3.7604 0.70348 5.2188 1.875a0.50005 0.50005 0 0 0 0.3125 0.125h1.4688a0.50005 0.50005 0 0 0 0.5 -0.5v-1.375a0.50005 0.50005 0 0 0 -0.15625 -0.375c-1.73-1.54-4.39-2.74-7.34-2.74zm0 1c2.6061 0 4.9491 1.0765 6.5 2.4062v0.59375h-0.875c-1.5358-1.1821-3.3121-2-5.625-2-2.3073 0-4.0825 0.77549-5.625 2h-0.875v-0.65625c1.72-1.43 3.89-2.34 6.5-2.34z" />
  </g>
</svg>
