<?xml version="1.0" encoding="UTF-8" standalone="no"?>
<!-- Created with Inkscape (http://www.inkscape.org/) -->

<svg
   xmlns:dc="http://purl.org/dc/elements/1.1/"
   xmlns:cc="http://creativecommons.org/ns#"
   xmlns:rdf="http://www.w3.org/1999/02/22-rdf-syntax-ns#"
   xmlns:svg="http://www.w3.org/2000/svg"
   xmlns="http://www.w3.org/2000/svg"
   xmlns:sodipodi="http://sodipodi.sourceforge.net/DTD/sodipodi-0.dtd"
   xmlns:inkscape="http://www.inkscape.org/namespaces/inkscape"
   id="svg7384"
   height="16.012"
   width="16"
   version="1.1"
   inkscape:version="0.91 r13725"
   sodipodi:docname="import.svg">
  <defs
     id="defs9" />
  <sodipodi:namedview
     pagecolor="#ffffff"
     bordercolor="#666666"
     borderopacity="1"
     objecttolerance="10"
     gridtolerance="10"
     guidetolerance="10"
     inkscape:pageopacity="0"
     inkscape:pageshadow="2"
     inkscape:window-width="1301"
     inkscape:window-height="744"
     id="namedview7"
     showgrid="false"
     inkscape:zoom="14.738947"
     inkscape:cx="-3.398372"
     inkscape:cy="8.0059998"
     inkscape:window-x="65"
     inkscape:window-y="24"
     inkscape:window-maximized="1"
     inkscape:current-layer="svg7384" />
  <metadata
     id="metadata90">
    <rdf:RDF>
      <cc:Work
         rdf:about="">
        <dc:format>image/svg+xml</dc:format>
        <dc:type
           rdf:resource="http://purl.org/dc/dcmitype/StillImage" />
        <dc:title>Gnome Symbolic Icon Theme</dc:title>
      </cc:Work>
    </rdf:RDF>
  </metadata>
  <title
     id="title9167">Gnome Symbolic Icon Theme</title>
  <g
     id="layer12"
     transform="matrix(1,0,0,-1,-242.86431,783.80431)"
     style="fill:#000000">
    <path
       id="path4387"
       style="color:#bebebe;fill:#000000"
       d="m 245.73646,769.62834 -0.87545,0.0442 -0.062,1.26826 c 0.003,4.25 0.089,5.7863 0.0991,10.0361 l 0.0341,0.87214 1.24714,0.0654 c 3.253,-0.003 6.4972,-0.0213 9.75,-0.0312 l 0.93972,-0.0338 -0.002,-1.2474 c -0.004,-3.256 -0.084,-6.3899 -0.0991,-9.6455 l -0.0208,-1.27468 -5.04156,-0.0534 -5.9688,0 z m 5.13035,1.39138 3.7188,3.7188 c 0.18814,0.18817 0.28122,0.45344 0.28125,0.71875 l 0,1 -1,0 c -0.2653,0 -0.53058,-0.0931 -0.71875,-0.28125 l -1.2812,-1.2812 0.0312,5.625 -2.125,0.0625 0.0625,-5.6562 -1.25,1.25 c -0.18818,0.18811 -0.45344,0.28129 -0.71875,0.28125 l -1,0 0,-1 c 0,-0.26528 0.093,-0.53057 0.28125,-0.71875 l 3.7188,-3.7188 z"
       inkscape:connector-curvature="0"
       sodipodi:nodetypes="ccccccccccccccccccsccccccccsccc" />
  </g>
</svg>
