<?xml version="1.0" encoding="UTF-8" standalone="no"?>
<!-- Created with Inkscape (http://www.inkscape.org/) -->

<svg
   xmlns:dc="http://purl.org/dc/elements/1.1/"
   xmlns:cc="http://creativecommons.org/ns#"
   xmlns:rdf="http://www.w3.org/1999/02/22-rdf-syntax-ns#"
   xmlns:svg="http://www.w3.org/2000/svg"
   xmlns="http://www.w3.org/2000/svg"
   xmlns:sodipodi="http://sodipodi.sourceforge.net/DTD/sodipodi-0.dtd"
   xmlns:inkscape="http://www.inkscape.org/namespaces/inkscape"
   id="svg7384"
   height="16"
   width="16"
   version="1.1"
   inkscape:version="0.91 r13725"
   sodipodi:docname="mergeDownNormal.svg">
  <defs
     id="defs10" />
  <sodipodi:namedview
     pagecolor="#ffffff"
     bordercolor="#666666"
     borderopacity="1"
     objecttolerance="10"
     gridtolerance="10"
     guidetolerance="10"
     inkscape:pageopacity="0"
     inkscape:pageshadow="2"
     inkscape:window-width="1301"
     inkscape:window-height="744"
     id="namedview8"
     showgrid="false"
     inkscape:zoom="14.75"
     inkscape:cx="-3.3898305"
     inkscape:cy="8"
     inkscape:window-x="65"
     inkscape:window-y="24"
     inkscape:window-maximized="1"
     inkscape:current-layer="svg7384" />
  <metadata
     id="metadata90">
    <rdf:RDF>
      <cc:Work
         rdf:about="">
        <dc:format>image/svg+xml</dc:format>
        <dc:type
           rdf:resource="http://purl.org/dc/dcmitype/StillImage" />
        <dc:title>Gnome Symbolic Icon Theme</dc:title>
      </cc:Work>
    </rdf:RDF>
  </metadata>
  <title
     id="title9167">Gnome Symbolic Icon Theme</title>
  <g
     id="layer12"
     transform="translate(-160,-626)">
    <path
       style="block-progression:tb;text-indent:0;color:#bebebe;enable-background:new;text-transform:none;fill:#000000"
       d="M 6.5078125 2.5761719 L 6.5078125 6.0625 L 3.7480469 3.2792969 C 3.5534169 3.0685569 3.2787969 2.9761369 2.9980469 2.9980469 L 1.9980469 2.9980469 L 2 3 L 2 4 C 1.99988 4.0104 1.99954 4.02075 2 4.03125 C 2.0112 4.2862 2.12858 4.54112 2.3125 4.71875 L 7.53125 10 L 12.71875 4.71875 C 12.90875 4.52875 12.998047 4.2680469 12.998047 3.9980469 L 12.998047 2.9980469 L 11.998047 2.9980469 C 11.732757 2.9980469 11.467467 3.0911469 11.279297 3.2792969 L 8.40625 6.2011719 L 8.40625 2.5761719 L 6.5078125 2.5761719 z M 2 11 L 2 13 L 13 13 L 13 11 L 2 11 z "
       transform="translate(160,626)"
       id="path10839-9-9-3-0-4" />
  </g>
</svg>
