<?xml version="1.0" encoding="UTF-8" standalone="no"?>
<!-- Created with Inkscape (http://www.inkscape.org/) -->

<svg
   xmlns:dc="http://purl.org/dc/elements/1.1/"
   xmlns:cc="http://creativecommons.org/ns#"
   xmlns:rdf="http://www.w3.org/1999/02/22-rdf-syntax-ns#"
   xmlns:svg="http://www.w3.org/2000/svg"
   xmlns="http://www.w3.org/2000/svg"
   xmlns:sodipodi="http://sodipodi.sourceforge.net/DTD/sodipodi-0.dtd"
   xmlns:inkscape="http://www.inkscape.org/namespaces/inkscape"
   id="svg7384"
   height="16"
   width="16"
   version="1.1"
   inkscape:version="0.91 r13725"
   sodipodi:docname="multiply.svg">
  <defs
     id="defs10" />
  <sodipodi:namedview
     pagecolor="#ffffff"
     bordercolor="#666666"
     borderopacity="1"
     objecttolerance="10"
     gridtolerance="10"
     guidetolerance="10"
     inkscape:pageopacity="0"
     inkscape:pageshadow="2"
     inkscape:window-width="738"
     inkscape:window-height="480"
     id="namedview8"
     showgrid="false"
     inkscape:zoom="14.75"
     inkscape:cx="8"
     inkscape:cy="8"
     inkscape:window-x="75"
     inkscape:window-y="34"
     inkscape:window-maximized="0"
     inkscape:current-layer="svg7384" />
  <metadata
     id="metadata90">
    <rdf:RDF>
      <cc:Work
         rdf:about="">
        <dc:format>image/svg+xml</dc:format>
        <dc:type
           rdf:resource="http://purl.org/dc/dcmitype/StillImage" />
        <dc:title>Gnome Symbolic Icon Theme</dc:title>
      </cc:Work>
    </rdf:RDF>
  </metadata>
  <title
     id="title9167">Gnome Symbolic Icon Theme</title>
  <g
     id="layer12"
     transform="translate(-360 -666)"
     style="fill:#000000">
    <path
       id="rect3783-5"
       style="fill:#000000"
       d="m361 666v2c0.55228 0 1 0.44772 1 1s-0.44772 1-1 1v1c0.55229 0 1 0.44772 1 1s-0.44771 1-1 1v1c0.55228 0 1 0.44772 1 1s-0.44772 1-1 1v1c0.55228 0 1 0.44772 1 1s-0.44772 1-1 1v2h2c0-0.55228 0.44772-1 1-1s1 0.44772 1 1h1c0-0.55228 0.44772-1 1-1s1 0.44772 1 1h1c0-0.55228 0.44772-1 1-1 0.55229 0 1 0.44772 1 1h1c0-0.55228 0.44771-1 1-1s1 0.44772 1 1h2v-2c-0.55229 0-1-0.44772-1-1s0.44771-1 1-1v-1c-0.55229 0-1-0.44772-1-1s0.44771-1 1-1v-1c-0.55229 0-1-0.44772-1-1s0.44771-1 1-1v-1c-0.55229 0-1-0.44772-1-1s0.44771-1 1-1v-2h-2c0 0.55228-0.44771 1-1 1s-1-0.44772-1-1h-1c0 0.55228-0.44771 1-1 1-0.55228 0-1-0.44772-1-1h-1c0 0.55228-0.44772 1-1 1s-1-0.44772-1-1h-1c0 0.55228-0.44772 1-1 1s-1-0.44772-1-1h-2zm2 2h11v11h-2v-2.8125c0-1.1096-0.91184-2.0126-2-2.0938v0.9375h-2.9375v-0.9375c-1.0882 0.0811-2.0625 0.98414-2.0625 2.0938v2.8125h-2v-11z" />
    <path
       id="path20580-9"
       style="color:#bebebe;fill:#000000"
       d="m52 342.5a2.5 2.5 0 1 1 -5 0 2.5 2.5 0 1 1 5 0z"
       transform="translate(319 329)" />
  </g>
</svg>
