<?xml version="1.0" encoding="UTF-8" standalone="no"?>
<!-- Created with Inkscape (http://www.inkscape.org/) -->

<svg
   xmlns:dc="http://purl.org/dc/elements/1.1/"
   xmlns:cc="http://creativecommons.org/ns#"
   xmlns:rdf="http://www.w3.org/1999/02/22-rdf-syntax-ns#"
   xmlns:svg="http://www.w3.org/2000/svg"
   xmlns="http://www.w3.org/2000/svg"
   xmlns:sodipodi="http://sodipodi.sourceforge.net/DTD/sodipodi-0.dtd"
   xmlns:inkscape="http://www.inkscape.org/namespaces/inkscape"
   id="svg7384"
   height="16"
   width="16"
   version="1.1"
   inkscape:version="0.91 r13725"
   sodipodi:docname="opacity.svg">
  <defs
     id="defs12" />
  <sodipodi:namedview
     pagecolor="#ffffff"
     bordercolor="#666666"
     borderopacity="1"
     objecttolerance="10"
     gridtolerance="10"
     guidetolerance="10"
     inkscape:pageopacity="0"
     inkscape:pageshadow="2"
     inkscape:window-width="1301"
     inkscape:window-height="744"
     id="namedview10"
     showgrid="false"
     inkscape:zoom="14.75"
     inkscape:cx="-3.3898305"
     inkscape:cy="8"
     inkscape:window-x="65"
     inkscape:window-y="24"
     inkscape:window-maximized="1"
     inkscape:current-layer="svg7384" />
  <metadata
     id="metadata90">
    <rdf:RDF>
      <cc:Work
         rdf:about="">
        <dc:format>image/svg+xml</dc:format>
        <dc:type
           rdf:resource="http://purl.org/dc/dcmitype/StillImage" />
        <dc:title>Gnome Symbolic Icon Theme</dc:title>
      </cc:Work>
    </rdf:RDF>
  </metadata>
  <title
     id="title9167">Gnome Symbolic Icon Theme</title>
  <g
     id="layer11"
     transform="matrix(0.66505075,0,0,0.6517378,-185.56292,-420.2532)"
     style="fill:#000000">
    <path
       id="path8587"
       style="color:#000000;text-indent:0;text-transform:none;block-progression:tb;fill:#000000;enable-background:new"
       d="m 291,650.01 c -2.2028,0 -3.9929,1.79 -3.9929,3.9929 0,2.2028 1.79,3.9929 3.9929,3.9929 2.2028,0 3.9928,-1.79 3.9928,-3.9929 0,-2.2028 -1.79,-3.9929 -3.9928,-3.9929 z m 0,1.0524 c 1.6264,0 2.9405,1.3141 2.9405,2.9405 0,1.6264 -1.3141,2.9405 -2.9405,2.9405 -1.6264,0 -2.9405,-1.3141 -2.9405,-2.9405 0,-1.6264 1.3141,-2.9405 2.9405,-2.9405 z"
       inkscape:connector-curvature="0" />
    <path
       id="path8591"
       style="color:#000000;text-indent:0;text-transform:none;block-progression:tb;fill:#000000;enable-background:new"
       d="m 287,657.01 c -2.2028,0 -3.9929,1.79 -3.9929,3.9929 0,2.2028 1.79,3.9929 3.9929,3.9929 2.2028,0 3.9928,-1.79 3.9928,-3.9929 0,-2.2028 -1.79,-3.9929 -3.9928,-3.9929 z m 0,1.0524 c 1.6264,0 2.9405,1.3141 2.9405,2.9405 0,1.6264 -1.3141,2.9405 -2.9405,2.9405 -1.6264,0 -2.9405,-1.3141 -2.9405,-2.9405 0,-1.6264 1.3141,-2.9405 2.9405,-2.9405 z"
       inkscape:connector-curvature="0" />
    <path
       id="path8593"
       style="color:#000000;fill:#000000;enable-background:new"
       d="m -2,321 a 7,7 0 1 1 -14,0 7,7 0 1 1 14,0 z"
       transform="matrix(0.57131,0,0,0.57131,300.14,477.61)"
       inkscape:connector-curvature="0" />
    <path
       id="path8595"
       style="color:#000000;fill:#000000;fill-opacity:0.36404;enable-background:new"
       d="m -2,321 a 7,7 0 1 1 -14,0 7,7 0 1 1 14,0 z"
       transform="matrix(0.49524,0,0,0.49524,291.46,502.03)"
       inkscape:connector-curvature="0" />
  </g>
  <rect
     style="fill:#000000;fill-opacity:0.14117648;stroke:#000000;stroke-width:1.0830754;stroke-miterlimit:4;stroke-dasharray:none;stroke-opacity:1"
     id="rect4140"
     width="14.186416"
     height="13.983027"
     x="1.0084875"
     y="1.0084869" />
</svg>
