<?xml version="1.0" encoding="UTF-8" standalone="no"?>
<!-- Created with Inkscape (http://www.inkscape.org/) -->

<svg
   xmlns:dc="http://purl.org/dc/elements/1.1/"
   xmlns:cc="http://creativecommons.org/ns#"
   xmlns:rdf="http://www.w3.org/1999/02/22-rdf-syntax-ns#"
   xmlns:svg="http://www.w3.org/2000/svg"
   xmlns="http://www.w3.org/2000/svg"
   xmlns:sodipodi="http://sodipodi.sourceforge.net/DTD/sodipodi-0.dtd"
   xmlns:inkscape="http://www.inkscape.org/namespaces/inkscape"
   width="16pt"
   height="16pt"
   viewBox="0 0 20.000001 20"
   id="svg2"
   version="1.1"
   inkscape:version="0.91 r13725"
   sodipodi:docname="polygonal.svg">
  <defs
     id="defs4" />
  <sodipodi:namedview
     id="base"
     pagecolor="#ffffff"
     bordercolor="#666666"
     borderopacity="1.0"
     inkscape:pageopacity="0.0"
     inkscape:pageshadow="2"
     inkscape:zoom="22.4"
     inkscape:cx="-6.4682074"
     inkscape:cy="11.648139"
     inkscape:document-units="px"
     inkscape:current-layer="layer1"
     showgrid="false"
     units="pt"
     inkscape:window-width="1301"
     inkscape:window-height="744"
     inkscape:window-x="65"
     inkscape:window-y="24"
     inkscape:window-maximized="1" />
  <metadata
     id="metadata7">
    <rdf:RDF>
      <cc:Work
         rdf:about="">
        <dc:format>image/svg+xml</dc:format>
        <dc:type
           rdf:resource="http://purl.org/dc/dcmitype/StillImage" />
        <dc:title />
      </cc:Work>
    </rdf:RDF>
  </metadata>
  <g
     inkscape:label="Layer 1"
     inkscape:groupmode="layer"
     id="layer1"
     transform="translate(0,-1032.3623)">
    <ellipse
       style="fill:none;fill-opacity:1;stroke:#000000;stroke-width:2.24600032;stroke-linecap:butt;stroke-linejoin:miter;stroke-miterlimit:28.20000076;stroke-dasharray:2.24600032, 2.24600031999999983;stroke-dashoffset:0;stroke-opacity:1"
       id="path4136"
       cx="10.089286"
       cy="1039.0587"
       rx="8.0360126"
       ry="4.1967263" />
    <path
       style="fill:none;fill-rule:evenodd;stroke:#000000;stroke-width:1.90000023;stroke-linecap:butt;stroke-linejoin:miter;stroke-opacity:1;stroke-miterlimit:4;stroke-dasharray:1.90000023, 1.90000023000000007;stroke-dashoffset:0"
       d="m 6.4285714,1043.523 c 0.08124,0.325 -5.586e-4,0.032 0.1339286,0.4018 0.032163,0.089 0.053088,0.181 0.089286,0.2679 0.06399,0.1535 0.1488096,0.2976 0.2232143,0.4464 0.059524,0.119 0.1139327,0.2408 0.1785715,0.3571 0.1035607,0.1864 0.1891464,0.2865 0.2678571,0.4911 0.03889,0.1011 0.057426,0.209 0.089286,0.3125 0.055356,0.1799 0.1190476,0.3571 0.1785714,0.5357 0.029762,0.089 0.054332,0.1805 0.089286,0.2679 0.024716,0.062 0.062257,0.1177 0.089286,0.1785 0.1111808,0.2502 0.1965423,0.5105 0.3125,0.759 0.056286,0.1206 0.1218981,0.2367 0.1785714,0.3571 0.062405,0.1326 0.1227686,0.2663 0.1785714,0.4018 0.04841,0.1176 0.067293,0.2489 0.1339286,0.3571 0.055148,0.09 0.1648464,0.1357 0.2232143,0.2233 0.062864,0.094 0.076825,0.2146 0.1339286,0.3125 0.3536077,0.6061 0.045491,0 0.2678571,0.3125 0.1119782,0.1567 0.1913615,0.3396 0.3125,0.491 0.026293,0.033 0.067631,0.053 0.089286,0.089 0.024211,0.04 0.023598,0.092 0.044643,0.1339 0.023995,0.048 0.065291,0.086 0.089286,0.134 0.021045,0.042 0.023598,0.092 0.044643,0.1339 0.023995,0.048 0.061681,0.088 0.089286,0.1339 0.034239,0.057 0.052371,0.1232 0.089286,0.1786 0.011674,0.017 0.037988,0.025 0.044643,0.045 0.0094,0.028 -0.01331,0.063 0,0.089 0.0067,0.013 0.03133,-0.01 0.04464,0 0.09871,0.049 0.01385,0.028 0.04464,0.089 0.02679,0.054 0.107143,0.08 0.133928,0.134 0.0067,0.013 -0.0067,0.031 0,0.045 0.01882,0.038 0.07046,0.052 0.08929,0.089 0.0067,0.013 -0.0067,0.031 0,0.045 0.02758,0.055 0.0431,0.045 0.08929,0.045"
       id="path4138"
       inkscape:connector-curvature="0" />
  </g>
</svg>
