<?xml version="1.0" encoding="UTF-8" standalone="no"?>
<!-- Created with Inkscape (http://www.inkscape.org/) -->

<svg
   xmlns:dc="http://purl.org/dc/elements/1.1/"
   xmlns:cc="http://creativecommons.org/ns#"
   xmlns:rdf="http://www.w3.org/1999/02/22-rdf-syntax-ns#"
   xmlns:svg="http://www.w3.org/2000/svg"
   xmlns="http://www.w3.org/2000/svg"
   xmlns:sodipodi="http://sodipodi.sourceforge.net/DTD/sodipodi-0.dtd"
   xmlns:inkscape="http://www.inkscape.org/namespaces/inkscape"
   id="svg7384"
   height="16"
   width="16"
   version="1.1"
   inkscape:version="0.91 r13725"
   sodipodi:docname="renderVideo.svg">
  <defs
     id="defs10" />
  <sodipodi:namedview
     pagecolor="#ffffff"
     bordercolor="#666666"
     borderopacity="1"
     objecttolerance="10"
     gridtolerance="10"
     guidetolerance="10"
     inkscape:pageopacity="0"
     inkscape:pageshadow="2"
     inkscape:window-width="1301"
     inkscape:window-height="744"
     id="namedview8"
     showgrid="false"
     inkscape:zoom="14.75"
     inkscape:cx="21.559322"
     inkscape:cy="6.6440678"
     inkscape:window-x="65"
     inkscape:window-y="24"
     inkscape:window-maximized="1"
     inkscape:current-layer="g4953" />
  <metadata
     id="metadata90">
    <rdf:RDF>
      <cc:Work
         rdf:about="">
        <dc:format>image/svg+xml</dc:format>
        <dc:type
           rdf:resource="http://purl.org/dc/dcmitype/StillImage" />
        <dc:title>Gnome Symbolic Icon Theme</dc:title>
      </cc:Work>
    </rdf:RDF>
  </metadata>
  <title
     id="title9167">Gnome Symbolic Icon Theme</title>
  <g
     id="g4953"
     transform="translate(-601 -461)">
    <path
       style="color:#000000;fill:#000000;enable-background:new"
       d="M 2.4589844 0.068359375 C 2.4589844 0.068359375 1.4902344 1.0683594 1.4902344 2.0683594 L 1.4902344 14.068359 C 1.4902344 15.077959 0.49023437 16.068359 0.49023438 16.068359 L 1.4902344 16.068359 C 1.4902344 16.068359 1.9131044 15.641369 2.2089844 15.068359 L 3.2089844 15.068359 C 2.9131044 15.641369 2.4902344 16.068359 2.4902344 16.068359 L 3.4902344 16.068359 C 3.4902344 16.068359 4.3917794 15.136912 4.4746094 14.201172 L 4.4746094 12.474609 L 7.1425781 12.474609 C 7.6269257 14.147468 9.0607885 15.418149 10.847656 15.691406 C 10.678564 15.907905 10.533203 16.068359 10.533203 16.068359 L 11.533203 16.068359 C 11.533203 16.068359 11.657582 15.939216 11.816406 15.736328 C 12.219245 15.714139 12.605833 15.640598 12.974609 15.523438 C 12.746704 15.849907 12.533203 16.068359 12.533203 16.068359 L 13.533203 16.068359 C 13.533203 16.068359 14.071832 15.503919 14.353516 14.814453 C 15.449151 13.98995 16.169922 12.708883 16.169922 11.253906 C 16.169922 9.873265 15.518733 8.6534075 14.517578 7.8261719 L 14.517578 3.9316406 L 14.533203 3.9316406 L 14.533203 2.0683594 C 14.533203 1.0683594 15.501953 0.068359375 15.501953 0.068359375 L 12.501953 0.068359375 C 12.501953 0.068359375 11.533203 1.0683594 11.533203 2.0683594 L 11.533203 3.6601562 L 4.4902344 3.6601562 L 4.4902344 2.0683594 C 4.4902344 1.0683594 5.4589844 0.068359375 5.4589844 0.068359375 L 2.4589844 0.068359375 z M 2.7714844 1.0683594 L 3.7714844 1.0683594 C 3.6185744 1.3741394 3.4902344 1.7204694 3.4902344 2.0683594 L 2.4902344 2.0683594 C 2.4902344 1.7204694 2.6185744 1.3741394 2.7714844 1.0683594 z M 12.814453 1.0683594 L 13.814453 1.0683594 C 13.661543 1.3741394 13.533203 1.7204694 13.533203 2.0683594 L 12.533203 2.0683594 C 12.533203 1.7204694 12.661543 1.3741394 12.814453 1.0683594 z M 2.4902344 3.0683594 L 3.4902344 3.0683594 L 3.4902344 4.0683594 L 2.4902344 4.0683594 L 2.4902344 3.0683594 z M 12.533203 3.0683594 L 13.533203 3.0683594 L 13.533203 4.0683594 L 12.533203 4.0683594 L 12.533203 3.0683594 z M 4.4746094 4.8808594 L 11.533203 4.8808594 L 11.533203 6.7480469 C 9.001333 6.7617745 6.9492188 8.7746941 6.9492188 11.253906 L 4.4746094 11.253906 L 4.4746094 4.8808594 z M 2.4902344 5.0683594 L 3.4902344 5.0683594 L 3.4902344 6.0683594 L 2.4902344 6.0683594 L 2.4902344 5.0683594 z M 12.533203 5.0683594 L 13.533203 5.0683594 L 13.533203 6.0683594 L 12.533203 6.0683594 L 12.533203 5.0683594 z M 2.4902344 7.0683594 L 3.4902344 7.0683594 L 3.4902344 8.0683594 L 2.4902344 8.0683594 L 2.4902344 7.0683594 z M 13.244141 7.0683594 L 13.533203 7.0683594 L 13.533203 7.1972656 C 13.43725 7.1524675 13.343607 7.10672 13.244141 7.0683594 z M 2.4902344 9.0683594 L 3.4902344 9.0683594 L 3.4902344 10.068359 L 2.4902344 10.068359 L 2.4902344 9.0683594 z M 2.4902344 11.068359 L 3.4902344 11.068359 L 3.4902344 12.068359 L 2.4902344 12.068359 L 2.4902344 11.068359 z M 2.4902344 13.068359 L 3.4902344 13.068359 L 3.4902344 14.068359 L 2.4902344 14.068359 L 2.4902344 13.068359 z "
       transform="translate(601,461)"
       id="rect5523-5-2" />
    <g
       id="layer12"
       transform="matrix(0.9251618,0,0,0.90475138,420.12568,16.257282)" />
  </g>
</svg>
