<?xml version="1.0" encoding="UTF-8" standalone="no"?>
<!-- Created with Inkscape (http://www.inkscape.org/) -->

<svg
   xmlns:dc="http://purl.org/dc/elements/1.1/"
   xmlns:cc="http://creativecommons.org/ns#"
   xmlns:rdf="http://www.w3.org/1999/02/22-rdf-syntax-ns#"
   xmlns:svg="http://www.w3.org/2000/svg"
   xmlns="http://www.w3.org/2000/svg"
   xmlns:sodipodi="http://sodipodi.sourceforge.net/DTD/sodipodi-0.dtd"
   xmlns:inkscape="http://www.inkscape.org/namespaces/inkscape"
   id="svg7384"
   height="16"
   width="16"
   version="1.1"
   inkscape:version="0.91 r13725"
   sodipodi:docname="restoremove.svg">
  <defs
     id="defs10" />
  <sodipodi:namedview
     pagecolor="#ffffff"
     bordercolor="#666666"
     borderopacity="1"
     objecttolerance="10"
     gridtolerance="10"
     guidetolerance="10"
     inkscape:pageopacity="0"
     inkscape:pageshadow="2"
     inkscape:window-width="1301"
     inkscape:window-height="744"
     id="namedview8"
     showgrid="false"
     inkscape:zoom="14.75"
     inkscape:cx="-3.3898305"
     inkscape:cy="8"
     inkscape:window-x="65"
     inkscape:window-y="24"
     inkscape:window-maximized="1"
     inkscape:current-layer="svg7384" />
  <metadata
     id="metadata90">
    <rdf:RDF>
      <cc:Work
         rdf:about="">
        <dc:format>image/svg+xml</dc:format>
        <dc:type
           rdf:resource="http://purl.org/dc/dcmitype/StillImage" />
        <dc:title>Gnome Symbolic Icon Theme</dc:title>
      </cc:Work>
    </rdf:RDF>
  </metadata>
  <title
     id="title9167">Gnome Symbolic Icon Theme</title>
  <g
     id="layer12"
     transform="translate(-318.9661,-669.57627)">
    <path
       style="text-indent:0;text-transform:none;block-progression:tb;color:#000000;fill:#000000"
       d="M 8.0332031 0.44335938 C 7.7237531 0.44335938 7.4808831 0.53365937 7.2832031 0.72460938 L 3.6269531 4.4433594 L 7.2832031 8.1621094 C 7.4808831 8.3530594 7.7237531 8.4433594 8.0332031 8.4433594 L 9.0332031 8.4433594 L 9.0332031 7.4433594 C 9.0332031 7.1864694 8.9033731 6.9148994 8.7207031 6.7246094 L 7.4199219 5.4238281 L 12.533203 5.4238281 C 13.373473 5.4238281 14.033203 6.0835581 14.033203 6.9238281 C 14.033203 7.7640981 13.373473 8.4238281 12.533203 8.4238281 L 12.033203 8.4238281 L 12.033203 10.423828 L 12.533203 10.423828 C 14.454403 10.423828 16.033203 8.8450281 16.033203 6.9238281 C 16.033203 5.0026281 14.454403 3.4238281 12.533203 3.4238281 L 7.4589844 3.4238281 L 8.7207031 2.1621094 C 8.9033731 1.9718194 9.0332031 1.7002494 9.0332031 1.4433594 L 9.0332031 0.44335938 L 8.0332031 0.44335938 z M 4.7285156 6.546875 L 3.4589844 9.3222656 L 4.3164062 9.3242188 L 4.3164062 10.886719 L 2.8886719 10.886719 L 2.8808594 10.162109 L 0.11328125 11.324219 L 2.9042969 12.427734 L 2.8964844 11.742188 L 4.3164062 11.742188 L 4.3164062 13.171875 L 3.578125 13.173828 L 4.7695312 15.757812 L 5.9570312 13.169922 L 5.21875 13.171875 L 5.21875 11.742188 L 6.5820312 11.742188 L 6.5742188 12.447266 L 9.3105469 11.326172 L 6.5976562 10.142578 L 6.5898438 10.886719 L 5.21875 10.886719 L 5.21875 9.3242188 L 5.9941406 9.3261719 L 4.7285156 6.546875 z "
       transform="translate(318.9661,669.57627)"
       id="path4762" />
  </g>
</svg>
