<?xml version="1.0" encoding="UTF-8" standalone="no"?>
<!-- Created with Inkscape (http://www.inkscape.org/) -->

<svg
   xmlns:dc="http://purl.org/dc/elements/1.1/"
   xmlns:cc="http://creativecommons.org/ns#"
   xmlns:rdf="http://www.w3.org/1999/02/22-rdf-syntax-ns#"
   xmlns:svg="http://www.w3.org/2000/svg"
   xmlns="http://www.w3.org/2000/svg"
   xmlns:sodipodi="http://sodipodi.sourceforge.net/DTD/sodipodi-0.dtd"
   xmlns:inkscape="http://www.inkscape.org/namespaces/inkscape"
   id="svg7384"
   height="16"
   width="16"
   version="1.1"
   inkscape:version="0.91 r13725"
   sodipodi:docname="restorescale.svg">
  <defs
     id="defs10" />
  <sodipodi:namedview
     pagecolor="#ffffff"
     bordercolor="#666666"
     borderopacity="1"
     objecttolerance="10"
     gridtolerance="10"
     guidetolerance="10"
     inkscape:pageopacity="0"
     inkscape:pageshadow="2"
     inkscape:window-width="738"
     inkscape:window-height="480"
     id="namedview8"
     showgrid="false"
     inkscape:zoom="14.75"
     inkscape:cx="8"
     inkscape:cy="8"
     inkscape:window-x="607"
     inkscape:window-y="201"
     inkscape:window-maximized="0"
     inkscape:current-layer="svg7384" />
  <metadata
     id="metadata90">
    <rdf:RDF>
      <cc:Work
         rdf:about="">
        <dc:format>image/svg+xml</dc:format>
        <dc:type
           rdf:resource="http://purl.org/dc/dcmitype/StillImage" />
        <dc:title>Gnome Symbolic Icon Theme</dc:title>
      </cc:Work>
    </rdf:RDF>
  </metadata>
  <title
     id="title9167">Gnome Symbolic Icon Theme</title>
  <g
     id="layer12"
     transform="translate(-318.9661,-669.57627)">
    <path
       style="text-indent:0;text-transform:none;block-progression:tb;color:#000000;fill:#000000"
       d="M 8.0332031 0.44335938 C 7.7237531 0.44335938 7.4808831 0.53365937 7.2832031 0.72460938 L 3.6269531 4.4433594 L 7.2832031 8.1621094 C 7.4808831 8.3530594 7.7237531 8.4433594 8.0332031 8.4433594 L 9.0332031 8.4433594 L 9.0332031 7.4433594 C 9.0332031 7.1864694 8.9033731 6.9148994 8.7207031 6.7246094 L 7.4199219 5.4238281 L 12.533203 5.4238281 C 13.373473 5.4238281 14.033203 6.0835581 14.033203 6.9238281 C 14.033203 7.7640981 13.373473 8.4238281 12.533203 8.4238281 L 12.033203 8.4238281 L 12.033203 10.423828 L 12.533203 10.423828 C 14.454403 10.423828 16.033203 8.8450281 16.033203 6.9238281 C 16.033203 5.0026281 14.454403 3.4238281 12.533203 3.4238281 L 7.4589844 3.4238281 L 8.7207031 2.1621094 C 8.9033731 1.9718194 9.0332031 1.7002494 9.0332031 1.4433594 L 9.0332031 0.44335938 L 8.0332031 0.44335938 z M 6.4003906 8.6953125 A 0.41801134 0.45060604 0 0 0 6.3046875 8.7148438 L 4.7246094 8.7148438 L 4.6855469 8.7148438 L 4.3066406 8.7148438 L 4.3066406 9.0214844 A 0.41843094 0.45105835 0 0 0 4.7246094 9.6171875 L 5.3710938 9.6171875 L 4.2148438 10.855469 A 0.42486604 0.45799524 0 1 0 4.8144531 11.503906 L 5.9785156 10.257812 L 5.9785156 10.96875 A 0.41801134 0.45060604 0 0 0 6.4648438 11.417969 L 6.8144531 11.417969 L 6.8144531 10.96875 L 6.8144531 9.3125 A 0.41801134 0.45060604 0 0 0 6.4414062 8.6953125 A 0.41801134 0.45060604 0 0 0 6.4003906 8.6953125 z M 3.2753906 12.087891 A 0.41801134 0.45060604 0 0 0 3.2089844 12.09375 A 0.41801134 0.45060604 0 0 0 2.9609375 12.220703 L 1.7988281 13.472656 L 1.7988281 12.769531 A 0.41801134 0.45060604 0 0 0 1.2890625 12.320312 L 0.96289062 12.320312 L 0.96289062 12.736328 A 0.41801134 0.45060604 0 0 0 0.96289062 12.769531 L 0.96289062 14.453125 A 0.42486604 0.45799524 0 0 0 1.4804688 15.023438 L 3.0527344 15.023438 L 3.4707031 15.023438 L 3.4707031 14.640625 A 0.41801134 0.45060604 0 0 0 3.0527344 14.123047 L 2.3964844 14.123047 L 3.5605469 12.869141 A 0.41801134 0.45060604 0 0 0 3.2753906 12.087891 z "
       transform="translate(318.9661,669.57627)"
       id="path4762" />
  </g>
  <g
     transform="matrix(0.41796954,0,0,0.45056098,-16.592584,-337.3154)"
     id="layer12-0">
    <rect
       x="42"
       y="781"
       width="1"
       height="1"
       style="color:#000000;fill:#bdbdbd;enable-background:new"
       id="rect12919" />
    <rect
       x="55"
       y="768"
       width="1"
       height="1"
       style="color:#000000;fill:#bdbdbd;enable-background:new"
       id="rect12923" />
  </g>
</svg>
