<?xml version="1.0" encoding="UTF-8" standalone="no"?>
<!-- Created with Inkscape (http://www.inkscape.org/) -->

<svg
   xmlns:dc="http://purl.org/dc/elements/1.1/"
   xmlns:cc="http://creativecommons.org/ns#"
   xmlns:rdf="http://www.w3.org/1999/02/22-rdf-syntax-ns#"
   xmlns:svg="http://www.w3.org/2000/svg"
   xmlns="http://www.w3.org/2000/svg"
   xmlns:sodipodi="http://sodipodi.sourceforge.net/DTD/sodipodi-0.dtd"
   xmlns:inkscape="http://www.inkscape.org/namespaces/inkscape"
   id="svg7384"
   height="16"
   width="16"
   version="1.1"
   inkscape:version="0.91 r13725"
   sodipodi:docname="rotateClockwise.svg">
  <defs
     id="defs10" />
  <sodipodi:namedview
     pagecolor="#ffffff"
     bordercolor="#666666"
     borderopacity="1"
     objecttolerance="10"
     gridtolerance="10"
     guidetolerance="10"
     inkscape:pageopacity="0"
     inkscape:pageshadow="2"
     inkscape:window-width="1301"
     inkscape:window-height="744"
     id="namedview8"
     showgrid="false"
     inkscape:zoom="14.75"
     inkscape:cx="6.964844"
     inkscape:cy="5.0169492"
     inkscape:window-x="65"
     inkscape:window-y="24"
     inkscape:window-maximized="1"
     inkscape:current-layer="g4953" />
  <metadata
     id="metadata90">
    <rdf:RDF>
      <cc:Work
         rdf:about="">
        <dc:format>image/svg+xml</dc:format>
        <dc:type
           rdf:resource="http://purl.org/dc/dcmitype/StillImage" />
        <dc:title>Gnome Symbolic Icon Theme</dc:title>
      </cc:Work>
    </rdf:RDF>
  </metadata>
  <title
     id="title9167">Gnome Symbolic Icon Theme</title>
  <g
     id="g4953"
     transform="translate(-601 -461)">
    <path
       style="fill:#000000;fill-opacity:1;stroke:none"
       d="M 7.0117188 1.03125 C 3.2667488 1.03125 0.22657187 4.1159162 0.20117188 7.9726562 L 0.20117188 8.0371094 C 0.20117188 11.912529 3.2486988 15.041016 7.0117188 15.041016 C 7.0863988 15.041016 7.1544156 15.043016 7.2285156 15.041016 L 7.2285156 13.810547 C 7.1467756 13.814547 7.0631688 13.810547 6.9804688 13.810547 C 3.8322087 13.810547 1.2890625 11.231969 1.2890625 8.0371094 L 1.2890625 8.0058594 C 1.3103225 4.8263894 3.8473088 2.2617188 6.9804688 2.2617188 C 9.8356328 2.2617188 12.185597 4.3859714 12.599609 7.1640625 L 11.046875 7.2050781 L 13.183594 12.140625 L 15.183594 7.09375 L 13.759766 7.1328125 C 13.328557 3.6871561 10.476492 1.03125 7.0117188 1.03125 z "
       transform="translate(601,461)"
       id="path4045" />
  </g>
</svg>
