<?xml version="1.0" encoding="UTF-8" standalone="no"?>
<!-- Created with Inkscape (http://www.inkscape.org/) -->

<svg
   xmlns:dc="http://purl.org/dc/elements/1.1/"
   xmlns:cc="http://creativecommons.org/ns#"
   xmlns:rdf="http://www.w3.org/1999/02/22-rdf-syntax-ns#"
   xmlns:svg="http://www.w3.org/2000/svg"
   xmlns="http://www.w3.org/2000/svg"
   xmlns:sodipodi="http://sodipodi.sourceforge.net/DTD/sodipodi-0.dtd"
   xmlns:inkscape="http://www.inkscape.org/namespaces/inkscape"
   id="svg7384"
   height="16"
   width="16"
   version="1.1"
   inkscape:version="0.91 r13725"
   sodipodi:docname="rotate15.svg">
  <defs
     id="defs10" />
  <sodipodi:namedview
     pagecolor="#ffffff"
     bordercolor="#666666"
     borderopacity="1"
     objecttolerance="10"
     gridtolerance="10"
     guidetolerance="10"
     inkscape:pageopacity="0"
     inkscape:pageshadow="2"
     inkscape:window-width="1301"
     inkscape:window-height="744"
     id="namedview8"
     showgrid="false"
     inkscape:zoom="14.75"
     inkscape:cx="10.101695"
     inkscape:cy="6.3728814"
     inkscape:window-x="65"
     inkscape:window-y="24"
     inkscape:window-maximized="1"
     inkscape:current-layer="g4953" />
  <metadata
     id="metadata90">
    <rdf:RDF>
      <cc:Work
         rdf:about="">
        <dc:format>image/svg+xml</dc:format>
        <dc:type
           rdf:resource="http://purl.org/dc/dcmitype/StillImage" />
        <dc:title>Gnome Symbolic Icon Theme</dc:title>
      </cc:Work>
    </rdf:RDF>
  </metadata>
  <title
     id="title9167">Gnome Symbolic Icon Theme</title>
  <g
     id="g4953"
     transform="translate(-601 -461)">
    <path
       style="fill:#000000;fill-opacity:1;stroke:none"
       d="M 7.9316406 0.203125 L 7.9316406 1.0527344 C 4.6689013 1.2676853 2.0376792 3.8352206 1.625 7.1328125 L 0.20117188 7.09375 L 2.1992188 12.140625 L 4.3378906 7.2050781 L 2.7851562 7.1640625 C 3.1760755 4.5409325 5.2924748 2.5043411 7.9316406 2.2851562 L 7.9316406 8.5429688 L 8.6738281 8.5429688 L 9.0195312 8.6894531 L 11.376953 3.1171875 C 12.995818 4.1270815 14.079896 5.9340423 14.09375 8.0058594 L 14.09375 8.0371094 C 14.09375 11.231969 11.552557 13.810547 8.4042969 13.810547 C 8.3215969 13.810547 8.2360369 13.814547 8.1542969 13.810547 L 8.1542969 15.041016 C 8.2283969 15.043016 8.2983669 15.041016 8.3730469 15.041016 C 12.136067 15.041016 15.183594 11.912529 15.183594 8.0371094 L 15.183594 7.9726562 C 15.166803 5.4231721 13.827868 3.2186384 11.84375 2.0117188 L 12.267578 1.0097656 L 11.455078 0.66601562 L 11.060547 1.5976562 C 10.364438 1.2915001 9.607389 1.1047715 8.8144531 1.0527344 L 8.8144531 0.203125 L 7.9316406 0.203125 z M 8.8144531 2.2832031 C 9.4403652 2.3285294 10.038477 2.4710714 10.591797 2.7050781 L 8.8144531 6.9101562 L 8.8144531 2.2832031 z "
       transform="translate(601,461)"
       id="path4045" />
  </g>
</svg>
