<?xml version="1.0" encoding="UTF-8" standalone="no"?>
<!-- Created with Inkscape (http://www.inkscape.org/) -->

<svg
   xmlns:dc="http://purl.org/dc/elements/1.1/"
   xmlns:cc="http://creativecommons.org/ns#"
   xmlns:rdf="http://www.w3.org/1999/02/22-rdf-syntax-ns#"
   xmlns:svg="http://www.w3.org/2000/svg"
   xmlns="http://www.w3.org/2000/svg"
   xmlns:sodipodi="http://sodipodi.sourceforge.net/DTD/sodipodi-0.dtd"
   xmlns:inkscape="http://www.inkscape.org/namespaces/inkscape"
   id="svg7384"
   height="16"
   width="16"
   version="1.1"
   inkscape:version="0.48.5 r10040"
   sodipodi:docname="rotate.svg">
  <defs
     id="defs10" />
  <sodipodi:namedview
     pagecolor="#ffffff"
     bordercolor="#666666"
     borderopacity="1"
     objecttolerance="10"
     gridtolerance="10"
     guidetolerance="10"
     inkscape:pageopacity="0"
     inkscape:pageshadow="2"
     inkscape:window-width="1920"
     inkscape:window-height="1056"
     id="namedview8"
     showgrid="false"
     inkscape:zoom="14.75"
     inkscape:cx="-3.9322034"
     inkscape:cy="8"
     inkscape:window-x="0"
     inkscape:window-y="24"
     inkscape:window-maximized="1"
     inkscape:current-layer="g4953" />
  <metadata
     id="metadata90">
    <rdf:RDF>
      <cc:Work
         rdf:about="">
        <dc:format>image/svg+xml</dc:format>
        <dc:type
           rdf:resource="http://purl.org/dc/dcmitype/StillImage" />
        <dc:title>Gnome Symbolic Icon Theme</dc:title>
      </cc:Work>
    </rdf:RDF>
  </metadata>
  <title
     id="title9167">Gnome Symbolic Icon Theme</title>
  <g
     id="g4953"
     transform="translate(-601 -461)">
    <path
       style="fill:#ff6600;fill-opacity:1;stroke:none"
       d="m 609.37288,462.03125 c -3.75281,0 -6.79339,3.11289 -6.80985,6.97374 l 1.15052,0 c 0.0165,-3.18034 2.55249,-5.74308 5.69043,-5.74308 3.13316,0 5.66916,2.56361 5.69042,5.74308 l 0,0.0316 c 0,3.19486 -2.54216,5.77463 -5.69042,5.77463 -0.0827,0 -0.16702,0.004 -0.24876,0 l 0,1.23066 c 0.0741,0.002 0.14298,0 0.21766,0 3.76302,0 6.80985,-3.12987 6.80985,-7.00529 l 0,-0.0631 c -0.0254,-3.85674 -3.06488,-6.94218 -6.80985,-6.94218 z"
       id="path4045"
       inkscape:connector-curvature="0" />
    <path
       sodipodi:type="star"
       style="fill:#ff6600;fill-opacity:1;stroke:none"
       id="path4053"
       sodipodi:sides="3"
       sodipodi:cx="-32.338982"
       sodipodi:cy="-2.3728814"
       sodipodi:r1="3.3282542"
       sodipodi:r2="1.6641271"
       sodipodi:arg1="0.98844338"
       sodipodi:arg2="2.0356409"
       inkscape:flatsided="true"
       inkscape:rounded="0"
       inkscape:randomized="0"
       d="m -30.508473,0.40677954 -5.15302,-2.58422464 4.814514,-3.1705336 z"
       transform="matrix(0.05605696,-0.99694496,0.71549883,0.07810733,606.75704,437.75872)"
       inkscape:transform-center-x="-0.02321135"
       inkscape:transform-center-y="0.80389886" />
  </g>
</svg>
