<?xml version="1.0" encoding="UTF-8" standalone="no"?>
<!-- Created with Inkscape (http://www.inkscape.org/) -->

<svg
   xmlns:dc="http://purl.org/dc/elements/1.1/"
   xmlns:cc="http://creativecommons.org/ns#"
   xmlns:rdf="http://www.w3.org/1999/02/22-rdf-syntax-ns#"
   xmlns:svg="http://www.w3.org/2000/svg"
   xmlns="http://www.w3.org/2000/svg"
   xmlns:sodipodi="http://sodipodi.sourceforge.net/DTD/sodipodi-0.dtd"
   xmlns:inkscape="http://www.inkscape.org/namespaces/inkscape"
   id="svg7384"
   height="16"
   width="16"
   version="1.1"
   inkscape:version="0.91 r13725"
   sodipodi:docname="saveas.svg">
  <defs
     id="defs13" />
  <sodipodi:namedview
     pagecolor="#ffffff"
     bordercolor="#666666"
     borderopacity="1"
     objecttolerance="10"
     gridtolerance="10"
     guidetolerance="10"
     inkscape:pageopacity="0"
     inkscape:pageshadow="2"
     inkscape:window-width="738"
     inkscape:window-height="480"
     id="namedview11"
     showgrid="false"
     inkscape:zoom="14.75"
     inkscape:cx="8"
     inkscape:cy="8"
     inkscape:window-x="75"
     inkscape:window-y="34"
     inkscape:window-maximized="0"
     inkscape:current-layer="svg7384" />
  <metadata
     id="metadata90">
    <rdf:RDF>
      <cc:Work
         rdf:about="">
        <dc:format>image/svg+xml</dc:format>
        <dc:type
           rdf:resource="http://purl.org/dc/dcmitype/StillImage" />
        <dc:title>Gnome Symbolic Icon Theme</dc:title>
      </cc:Work>
    </rdf:RDF>
  </metadata>
  <title
     id="title9167">Gnome Symbolic Icon Theme</title>
  <g
     id="layer12"
     transform="translate(-101 -647)"
     style="fill:#000000">
    <path
       id="path3613-6"
       style="block-progression:tb;text-indent:0;color:#000000;text-transform:none;fill:#000000"
       d="m105 652v1c0.00001 0.2653 0.0931 0.53058 0.28125 0.71875l3 3 0.28125 0.28125h0.875l0.28125-0.28125 3-3c0.18819-0.18817 0.28124-0.45345 0.28125-0.71875v-1h-1c-0.2653 0.00001-0.53059 0.0931-0.71875 0.28125l-2.2812 2.2812-2.2812-2.2812c-0.19-0.19-0.45-0.28-0.72-0.28h-1z" />
    <path
       id="path4388-5"
       style="block-progression:tb;text-indent:0;color:#000000;text-transform:none;fill:#000000"
       d="m108 650v5h2v-5h-2z" />
    <path
       id="rect11668-7-5-4"
       style="color:#000000;fill-rule:evenodd;fill:#000000"
       d="m104 658v4h10v-4zm3.3438 1.4375c0.0208-0.001 0.0417-0.001 0.0625 0 0.29096-0.0556 0.59898 0.20383 0.59375 0.5v0.0625h2v-0.0625c-0.004-0.26416 0.23582-0.50712 0.5-0.50712s0.50373 0.24296 0.5 0.50712v0.0625c0 0.54535-0.45465 1-1 1h-2c-0.54535 0-1-0.45465-1-1v-0.0625c-0.0108-0.21706 0.13723-0.43234 0.34375-0.5z" />
    <path
       id="rect4390"
       style="block-progression:tb;text-indent:0;color:#bebebe;text-transform:none;fill:#000000"
       d="m104 647c-0.54535 0-1 0.45465-1 1v2c0 0.54535 0.45465 1 1 1h10c0.54535 0 1-0.45465 1-1v-2c0-0.54535-0.45465-1-1-1h-10zm0 1h10v2h-10v-2z" />
    <path
       id="rect4390-9-1"
       style="block-progression:tb;text-indent:0;color:#bebebe;text-transform:none;fill:#000000"
       d="m105.41 656a0.50005 0.50005 0 0 0 -0.3125 0.21875l-1 1.5a0.50005 0.50005 0 1 0 0.8125 0.5625l1-1.5a0.50005 0.50005 0 0 0 -0.5 -0.78125zm7 0a0.50005 0.50005 0 0 0 -0.3125 0.78125l1 1.5a0.50005 0.50005 0 1 0 0.8125 -0.5625l-1-1.5a0.50005 0.50005 0 0 0 -0.5 -0.21875z" />
  </g>
</svg>
