<?xml version="1.0" encoding="UTF-8" standalone="no"?>
<!-- Created with Inkscape (http://www.inkscape.org/) -->

<svg
   xmlns:dc="http://purl.org/dc/elements/1.1/"
   xmlns:cc="http://creativecommons.org/ns#"
   xmlns:rdf="http://www.w3.org/1999/02/22-rdf-syntax-ns#"
   xmlns:svg="http://www.w3.org/2000/svg"
   xmlns="http://www.w3.org/2000/svg"
   xmlns:sodipodi="http://sodipodi.sourceforge.net/DTD/sodipodi-0.dtd"
   xmlns:inkscape="http://www.inkscape.org/namespaces/inkscape"
   id="svg7384"
   height="16"
   width="16"
   version="1.1"
   inkscape:version="0.91 r13725"
   sodipodi:docname="setframe.svg">
  <defs
     id="defs11" />
  <sodipodi:namedview
     pagecolor="#ffffff"
     bordercolor="#666666"
     borderopacity="1"
     objecttolerance="10"
     gridtolerance="10"
     guidetolerance="10"
     inkscape:pageopacity="0"
     inkscape:pageshadow="2"
     inkscape:window-width="738"
     inkscape:window-height="480"
     id="namedview9"
     showgrid="false"
     inkscape:zoom="14.75"
     inkscape:cx="8"
     inkscape:cy="8"
     inkscape:window-x="75"
     inkscape:window-y="34"
     inkscape:window-maximized="0"
     inkscape:current-layer="svg7384" />
  <metadata
     id="metadata90">
    <rdf:RDF>
      <cc:Work
         rdf:about="">
        <dc:format>image/svg+xml</dc:format>
        <dc:type
           rdf:resource="http://purl.org/dc/dcmitype/StillImage" />
        <dc:title>Gnome Symbolic Icon Theme</dc:title>
      </cc:Work>
    </rdf:RDF>
  </metadata>
  <title
     id="title9167">Gnome Symbolic Icon Theme</title>
  <g
     id="layer11"
     transform="translate(-162 -530)"
     style="fill:#000000">
    <path
       id="rect5238-9"
       style="color:#bebebe;fill:#000000"
       d="m176 530c1.1999 0 2 0.7984 2 2v4h-2v-3.75c0-0.1238-0.0566-0.25-0.1875-0.25h-11.625c-0.1309 0-0.1875 0.1262-0.1875 0.25v11.75c-1.1999 0-2-0.9234-2-2.125v-9.875c0-1.2016 0.80008-2 2-2z" />
    <path
       id="rect5238-8"
       style="color:#bebebe;fill:#000000"
       d="m169.25 536c-0.47139 0-0.74314 0.54175-0.75 1v1h-2.5c-0.46865 0.0651-1 0.5417-1 1v6c0 0.4583 0.52685 1 1 1h10c0.47315 0 1-0.5417 1-1v-6c0-0.4583-0.52685-1-1-1h-2.5v-1c0-0.4583-0.34111-1-0.8125-1zm1.75 3c1.6568 0 3 1.3432 3 3s-1.3432 3-3 3-3-1.3432-3-3 1.3432-3 3-3z" />
    <path
       id="path2998"
       style="fill:#000000"
       d="m-3.7538 10.335a0.969 1.335 0 1 1 -1.938 0 0.969 1.335 0 1 1 1.938 0z"
       transform="matrix(2.064 0 0 1.4981 180.75 526.52)" />
  </g>
</svg>
