<?xml version="1.0" encoding="UTF-8" standalone="no"?>
<!-- Created with Inkscape (http://www.inkscape.org/) -->

<svg
   xmlns:dc="http://purl.org/dc/elements/1.1/"
   xmlns:cc="http://creativecommons.org/ns#"
   xmlns:rdf="http://www.w3.org/1999/02/22-rdf-syntax-ns#"
   xmlns:svg="http://www.w3.org/2000/svg"
   xmlns="http://www.w3.org/2000/svg"
   xmlns:sodipodi="http://sodipodi.sourceforge.net/DTD/sodipodi-0.dtd"
   xmlns:inkscape="http://www.inkscape.org/namespaces/inkscape"
   id="svg7384"
   height="16"
   width="16"
   version="1.1"
   inkscape:version="0.91 r13725"
   sodipodi:docname="toggleBackground.svg">
  <defs
     id="defs10" />
  <sodipodi:namedview
     pagecolor="#ffffff"
     bordercolor="#666666"
     borderopacity="1"
     objecttolerance="10"
     gridtolerance="10"
     guidetolerance="10"
     inkscape:pageopacity="0"
     inkscape:pageshadow="2"
     inkscape:window-width="738"
     inkscape:window-height="480"
     id="namedview8"
     showgrid="false"
     inkscape:zoom="14.75"
     inkscape:cx="8"
     inkscape:cy="8"
     inkscape:window-x="75"
     inkscape:window-y="34"
     inkscape:window-maximized="0"
     inkscape:current-layer="svg7384" />
  <metadata
     id="metadata90">
    <rdf:RDF>
      <cc:Work
         rdf:about="">
        <dc:format>image/svg+xml</dc:format>
        <dc:type
           rdf:resource="http://purl.org/dc/dcmitype/StillImage" />
        <dc:title>Gnome Symbolic Icon Theme</dc:title>
      </cc:Work>
    </rdf:RDF>
  </metadata>
  <title
     id="title9167">Gnome Symbolic Icon Theme</title>
  <path
     inkscape:connector-curvature="0"
     d="M 1,0 1,2 C 1.55228,2 2,2.44772 2,3 2,3.55228 1.55228,4 1,4 L 1,5 C 1.55229,5 2,5.44772 2,6 2,6.55228 1.55229,7 1,7 l 0,1 c 0.55228,0 1,0.44772 1,1 0,0.55228 -0.44772,1 -1,1 l 0,1 c 0.55228,0 1,0.44772 1,1 0,0.55228 -0.44772,1 -1,1 l 0,2 2,0 c 0,-0.55228 0.44772,-1 1,-1 0.55228,0 1,0.44772 1,1 l 1,0 c 0,-0.55228 0.44772,-1 1,-1 0.55228,0 1,0.44772 1,1 l 1,0 c 0,-0.55228 0.44772,-1 1,-1 0.55229,0 1,0.44772 1,1 l 1,0 c 0,-0.55228 0.44771,-1 1,-1 0.55229,0 1,0.44772 1,1 l 2,0 0,-2 c -0.55229,0 -1,-0.44772 -1,-1 0,-0.55228 0.44771,-1 1,-1 l 0,-1 C 15.44771,10 15,9.55228 15,9 15,8.44772 15.44771,8 16,8 L 16,7 C 15.44771,7 15,6.55228 15,6 15,5.44772 15.44771,5 16,5 L 16,4 C 15.44771,4 15,3.55228 15,3 15,2.44772 15.44771,2 16,2 L 16,0 14,0 C 14,0.55228 13.55229,1 13,1 12.44771,1 12,0.55228 12,0 L 11,0 C 11,0.55228 10.55229,1 10,1 9.44772,1 9,0.55228 9,0 L 8,0 C 8,0.55228 7.55228,1 7,1 6.44772,1 6,0.55228 6,0 L 5,0 C 5,0.55228 4.55228,1 4,1 3.44772,1 3,0.55228 3,0 z m 2,2 11,0 0,11 -2,0 -7,0 -2,0 z"
     style="fill:#000000"
     id="rect3783-5"
     sodipodi:nodetypes="ccsccsccsccscccsccsccsccscccsccsccsccscccsccsccsccsccccccccc" />
</svg>
